<?xml version="1.0" encoding="iso-8859-1"?>
<!-- Uploaded to: SVG Repo, www.svgrepo.com, Generator: SVG Repo Mixer Tools -->
<svg fill="#000000" height="800px" width="800px" version="1.1" id="Layer_1" xmlns="http://www.w3.org/2000/svg" xmlns:xlink="http://www.w3.org/1999/xlink" 
	 viewBox="0 0 512.853 512.853" xml:space="preserve">
<g transform="translate(1 1)">
	<g>
		<g>
			<path d="M405.187,311.747l-34.133,17.067c-3.413,1.707-5.12,4.267-5.12,7.68v59.733c0,5.12,3.413,8.533,8.533,8.533
				s8.533-3.413,8.533-8.533v-54.613l29.867-15.36c3.413-1.707,5.12-6.827,3.413-11.093
				C414.573,311.747,409.453,310.04,405.187,311.747z"/>
			<path d="M511.853,147.907c0-23.04-18.773-41.813-41.813-41.813H459.8V91.587c0-10.24-9.387-19.627-20.48-19.627h-28.16
				c-10.24,0-19.627,9.387-19.627,19.627v14.507h-17.067V71.96H357.4v-9.387c0-32.427-26.453-58.88-58.88-58.88h-87.04
				c-32.427,0-58.88,26.453-58.88,58.88v9.387h-17.067v34.133h-17.067V91.587c0-10.24-9.387-19.627-20.48-19.627h-28.16
				c-10.24,0-19.627,9.387-19.627,19.627v14.507h-9.387C17.773,106.093-1,124.867-1,147.907v283.307
				c0,23.04,18.773,41.813,41.813,41.813H50.2h68.267h242.261c4.989,5.52,10.424,10.66,16.299,15.36
				c11.093,8.533,22.187,12.8,33.28,17.067l3.413,0.853c1.707,0.853,2.56,0.853,3.413,0.853s1.707,0,3.413-0.853l3.413-0.853
				c11.093-4.267,23.04-8.533,33.28-17.067c34.987-27.307,54.613-69.12,54.613-117.76v-66.56h0V147.907z M470.04,123.16
				c13.653,0,24.747,11.093,24.747,24.747v136.033c-6.656-1.143-12.924-2.623-18.837-4.367c-5.677-1.826-11.057-3.885-16.15-6.109
				V123.16H470.04z M408.6,123.16h34.133v141.81c-7.163-3.995-13.684-8.141-19.627-12.103l-5.12-3.413l-0.427,0.284l-0.427-0.284
				l-5.12,2.56c-0.853,0.853-2.56,1.707-3.413,2.56V123.16z M408.6,91.587c0-0.853,1.707-2.56,3.413-2.56h28.16
				c0.853,0,2.56,1.707,2.56,2.56v14.507H408.6V91.587z M357.4,106.093h-51.2V89.027h51.2V106.093z M306.2,71.96h-17.067v34.133
				h-68.267V71.96H203.8V58.307c0-1.707,3.413-2.56,3.413-3.413s1.707-1.707,4.267-0.853c28.16,11.947,59.733,11.947,88.747,0
				c1.707-0.853,3.413,0.853,4.267,0.853c0,0,1.707,1.707,1.707,3.413V71.96z M169.667,62.573c0-23.04,18.773-41.813,41.813-41.813
				h87.04c23.04,0,41.813,18.773,41.813,41.813v9.387h-17.067V58.307c0-6.827-3.413-13.653-10.24-17.92
				c-5.973-3.413-13.653-4.267-20.48-1.707c-24.747,10.24-51.2,10.24-75.947,0c-6.827-3.413-14.507-2.56-20.48,1.707
				c-5.973,3.413-9.387,10.24-9.387,17.92V71.96h-17.067V62.573z M152.6,89.027h51.2v17.067h-51.2V89.027z M67.267,91.587
				c0-0.853,1.707-2.56,2.56-2.56H98.84c0.853,0,2.56,1.707,2.56,2.56v14.507H67.267V91.587z M40.813,455.96
				c-13.653,0-24.747-11.093-24.747-23.893v-284.16c0-13.653,11.093-24.747,24.747-24.747H50.2v332.8H40.813z M67.267,455.96v-332.8
				H101.4v332.8H67.267z M118.467,455.96v-332.8h17.067h85.333h68.267h85.333h17.067v142.769
				c-14.196,7.717-30.746,14.483-51.234,18.013c-0.092-5.399-0.73-10.653-1.863-15.715H357.4v-102.4H237.933v46.994
				c-29.934,10.46-51.2,38.801-51.2,72.473c0,2.888,0.169,5.732,0.474,8.533h-43.141v102.4h119.467v-34.133
				c24.229,0,45.696-11.015,59.733-28.34v36.874c0,1.83,0.037,3.647,0.092,5.457c0.012,0.39,0.03,0.778,0.044,1.168
				c0.06,1.62,0.142,3.233,0.247,4.836c0.01,0.154,0.019,0.309,0.03,0.463c1.859,27.465,10.144,52.431,23.874,73.409H118.467z
				 M246.467,360.387v18.773h-85.333v-68.267H191c3.302,9.575,8.527,18.25,15.167,25.641c0.272,0.305,0.546,0.609,0.823,0.91
				c0.342,0.369,0.692,0.73,1.041,1.093c0.808,0.843,1.635,1.666,2.481,2.471c0.025,0.024,0.05,0.048,0.075,0.072
				c3.466,3.289,7.24,6.252,11.28,8.848c0.055,0.035,0.11,0.07,0.165,0.105c0.833,0.532,1.675,1.051,2.529,1.552
				c0.636,0.376,1.278,0.744,1.925,1.102c0.22,0.121,0.441,0.24,0.663,0.359C233.183,356.306,239.672,358.801,246.467,360.387z
				 M203.8,285.293c0-25.205,15.18-46.483,37.001-55.33l7.372-1.843c30.72-8.533,58.88,7.68,69.973,34.987l2.56,5.12h0.125
				c1.577,5.398,2.435,11.12,2.435,17.067c0,33.28-26.453,59.733-59.733,59.733C230.253,345.027,203.8,318.573,203.8,285.293z
				 M275.672,209.44c-3.952-0.618-8.004-0.947-12.139-0.947c-2.888,0-5.732,0.169-8.533,0.474v-26.074h85.333v68.267h-7.68
				C321.235,228.323,300.297,212.896,275.672,209.44z M493.933,370.627c0,42.667-17.067,80.213-47.787,104.107
				c-8.533,6.827-18.773,10.24-29.013,14.507c-11.093-4.267-20.48-7.68-29.013-14.507c-3.622-2.817-7.047-5.831-10.284-9.014
				l-5.929-7.2c-18.391-20.69-29.207-47.576-31.223-77.564c-0.032-0.478-0.064-0.956-0.091-1.436
				c-0.035-0.599-0.065-1.199-0.092-1.8c-0.032-0.709-0.058-1.42-0.081-2.132c-0.014-0.454-0.031-0.906-0.042-1.361
				c-0.027-1.196-0.045-2.396-0.045-3.601v-69.12c20.128-3.613,36.806-9.73,51.2-16.826v0.613l12.8-6.827
				c4.267-2.56,8.533-5.12,12.8-7.68c8.533,5.12,18.773,11.947,30.72,17.067l11.947,5.12v-0.484
				c10.213,3.892,21.493,7.072,34.133,9.017V370.627z"/>
			<path d="M263.533,251.16c-18.773,0-34.133,15.36-34.133,34.133c0,18.773,15.36,34.133,34.133,34.133
				c18.773,0,34.133-15.36,34.133-34.133C297.667,266.52,282.307,251.16,263.533,251.16z M263.533,302.36
				c-9.387,0-17.067-7.68-17.067-17.067s7.68-17.067,17.067-17.067c9.387,0,17.067,7.68,17.067,17.067S272.92,302.36,263.533,302.36
				z"/>
		</g>
	</g>
</g>
</svg>